<mxfile host="65bd71144e">
    <diagram name="Página-1" id="2iGTBBSSL8j79li_ncgn">
        <mxGraphModel dx="1130" dy="523" grid="1" gridSize="10" guides="1" tooltips="1" connect="1" arrows="1" fold="1" page="1" pageScale="1" pageWidth="827" pageHeight="1169" math="0" shadow="0">
            <root>
                <mxCell id="0"/>
                <mxCell id="1" parent="0"/>
                <mxCell id="Bm7MWyqaDWR8mYwb4yu1-10" style="edgeStyle=orthogonalEdgeStyle;rounded=0;orthogonalLoop=1;jettySize=auto;html=1;exitX=0.5;exitY=0;exitDx=0;exitDy=0;exitPerimeter=0;entryX=0.5;entryY=0;entryDx=0;entryDy=0;" parent="1" edge="1">
                    <mxGeometry relative="1" as="geometry">
                        <mxPoint x="310" y="90" as="sourcePoint"/>
                    </mxGeometry>
                </mxCell>
                <mxCell id="Bm7MWyqaDWR8mYwb4yu1-11" value="Início" style="ellipse;whiteSpace=wrap;html=1;aspect=fixed;fillColor=#cdeb8b;strokeColor=#36393d;" parent="1" vertex="1">
                    <mxGeometry x="20" y="60" width="80" height="80" as="geometry"/>
                </mxCell>
                <mxCell id="Bm7MWyqaDWR8mYwb4yu1-15" style="edgeStyle=orthogonalEdgeStyle;rounded=0;orthogonalLoop=1;jettySize=auto;html=1;entryX=0.5;entryY=0;entryDx=0;entryDy=0;" parent="1" source="Bm7MWyqaDWR8mYwb4yu1-12" edge="1">
                    <mxGeometry relative="1" as="geometry">
                        <mxPoint x="190" y="205" as="targetPoint"/>
                    </mxGeometry>
                </mxCell>
                <mxCell id="Bm7MWyqaDWR8mYwb4yu1-12" value="Digite um número" style="shape=parallelogram;perimeter=parallelogramPerimeter;whiteSpace=wrap;html=1;fixedSize=1;fillColor=#cce5ff;strokeColor=#36393d;" parent="1" vertex="1">
                    <mxGeometry x="130" y="70" width="120" height="60" as="geometry"/>
                </mxCell>
                <mxCell id="Bm7MWyqaDWR8mYwb4yu1-13" style="edgeStyle=orthogonalEdgeStyle;rounded=0;orthogonalLoop=1;jettySize=auto;html=1;entryX=0.04;entryY=0.596;entryDx=0;entryDy=0;entryPerimeter=0;" parent="1" source="Bm7MWyqaDWR8mYwb4yu1-11" target="Bm7MWyqaDWR8mYwb4yu1-12" edge="1">
                    <mxGeometry relative="1" as="geometry"/>
                </mxCell>
                <mxCell id="3" value="" style="edgeStyle=none;html=1;" edge="1" parent="1" source="Bm7MWyqaDWR8mYwb4yu1-16" target="Bm7MWyqaDWR8mYwb4yu1-32">
                    <mxGeometry relative="1" as="geometry"/>
                </mxCell>
                <mxCell id="7" value="sim" style="edgeStyle=none;html=1;entryX=0;entryY=0.5;entryDx=0;entryDy=0;" edge="1" parent="1" source="Bm7MWyqaDWR8mYwb4yu1-16" target="6">
                    <mxGeometry relative="1" as="geometry"/>
                </mxCell>
                <mxCell id="9" value="não" style="edgeStyle=none;html=1;entryX=1;entryY=0.5;entryDx=0;entryDy=0;" edge="1" parent="1" source="Bm7MWyqaDWR8mYwb4yu1-16" target="8">
                    <mxGeometry relative="1" as="geometry">
                        <mxPoint x="110" y="395" as="targetPoint"/>
                    </mxGeometry>
                </mxCell>
                <mxCell id="Bm7MWyqaDWR8mYwb4yu1-16" value="se resto==0" style="rhombus;whiteSpace=wrap;html=1;fillColor=#fff2cc;gradientColor=#ffd966;strokeColor=#d6b656;" parent="1" vertex="1">
                    <mxGeometry x="130" y="350" width="130" height="90" as="geometry"/>
                </mxCell>
                <mxCell id="Bm7MWyqaDWR8mYwb4yu1-32" value="fim" style="ellipse;whiteSpace=wrap;html=1;aspect=fixed;fillColor=#ffcd28;gradientColor=#ffa500;strokeColor=#d79b00;" parent="1" vertex="1">
                    <mxGeometry x="155" y="540" width="80" height="80" as="geometry"/>
                </mxCell>
                <mxCell id="5" value="" style="edgeStyle=none;html=1;" edge="1" parent="1" source="4" target="Bm7MWyqaDWR8mYwb4yu1-16">
                    <mxGeometry relative="1" as="geometry"/>
                </mxCell>
                <mxCell id="4" value="resto=numero/2" style="shape=document;whiteSpace=wrap;html=1;boundedLbl=1;fillColor=#e1d5e7;strokeColor=#9673a6;" vertex="1" parent="1">
                    <mxGeometry x="135" y="210" width="120" height="80" as="geometry"/>
                </mxCell>
                <mxCell id="6" value="numero é&amp;nbsp;&lt;div&gt;par&lt;/div&gt;" style="whiteSpace=wrap;html=1;aspect=fixed;fillColor=#cdeb8b;strokeColor=#36393d;" vertex="1" parent="1">
                    <mxGeometry x="340" y="355" width="80" height="80" as="geometry"/>
                </mxCell>
                <mxCell id="8" value="numero é&lt;div&gt;impar&lt;/div&gt;" style="whiteSpace=wrap;html=1;aspect=fixed;fillColor=#cdeb8b;strokeColor=#36393d;" vertex="1" parent="1">
                    <mxGeometry x="10" y="355" width="80" height="80" as="geometry"/>
                </mxCell>
            </root>
        </mxGraphModel>
    </diagram>
</mxfile>